<svg width="805" height="789" viewBox="0 0 805 789" fill="none" xmlns="http://www.w3.org/2000/svg">
    <path
        d="M100.413 298.737C87.4127 339.237 71.9125 351.737 47.9127 384.737C23.9129 417.737 3.91241 436.237 0.412571 476.237C-3.08727 516.237 16.5216 537.346 27.413 548.237C35.9131 556.737 74.9122 574.237 108.913 580.737C142.913 587.237 163.506 588.41 196.913 599.237C211.196 603.866 219.455 606.079 232.913 612.737C251.797 622.079 261.437 629.502 277.413 643.237C305.671 667.532 312.228 689.885 336.413 718.237C351.041 735.386 356.911 747.674 374.913 761.237C389.563 772.275 398.896 777.793 416.413 783.237C438.28 790.034 452.063 788.739 474.913 787.237C500.442 785.559 514.659 781.382 538.913 773.237C564.252 764.728 577.759 757.594 600.913 744.237C627.102 729.129 641.221 719.217 663.913 699.237C687.77 678.232 699.919 664.724 718.913 639.237C830.925 488.932 835.185 306.271 718.913 159.237C572.361 -26.0887 144.711 -77.5164 113.913 156.737C109.866 187.519 115.16 198.085 113.913 236.237C113.09 261.405 105.58 282.639 100.413 298.737Z"
        fill="#30B0C7" />
</svg>
    